<svg viewBox="0 0 129 182" fill="none" xmlns="http://www.w3.org/2000/svg">
<path d="M128.024 64.6704C127.633 54.5682 101.338 9.8388 62.996 12.0815C27.1623 11.4355 3.34949 53.2467 0.332887 64.6676C-2.68371 76.0885 14.5364 142.811 62.996 180.384C114.424 155.139 128.415 74.7727 128.024 64.6704Z" fill="url(#paint0_linear_2003_3418)"/>
<path id="stem" d="M64.3918 1.5L64.3918 180.5" stroke="#2D5016" stroke-width="3" stroke-linecap="round"/>
<line x1="1" y1="-1" x2="30.6526" y2="-1" transform="matrix(-0.896473 0.443097 -0.451349 -0.892348 63.3757 34)" stroke="#2D5016" stroke-width="2" stroke-linecap="round"/>
<line x1="64.3072" y1="34.4604" x2="90.7281" y2="45.4429" stroke="#2D5016" stroke-width="2" stroke-linecap="round"/>
<line x1="62.5075" y1="64.3257" x2="33.4772" y2="77.6287" stroke="#2D5016" stroke-width="2" stroke-linecap="round"/>
<path d="M63.5 63.5L98.1393 76.5754" stroke="#2D5016" stroke-width="2" stroke-linecap="round"/>
<path d="M63.5 97.5L23.266 117.072" stroke="#2D5016" stroke-width="2" stroke-linecap="round"/>
<path d="M63.5002 97.5003L102.873 113.979" stroke="#2D5016" stroke-width="2" stroke-linecap="round"/>
<line x1="62.7049" y1="136.383" x2="38.2639" y2="152.23" stroke="#2D5016" stroke-width="2" stroke-linecap="round"/>
<line x1="1" y1="-1" x2="29.7297" y2="-1" transform="matrix(0.846447 0.532472 -0.541285 0.840839 63 135)" stroke="#2D5016" stroke-width="2" stroke-linecap="round"/>
<defs>
<linearGradient id="paint0_linear_2003_3418" x1="64.0159" y1="12" x2="64.0159" y2="180.384" gradientUnits="userSpaceOnUse">
<stop stop-color="#4ADE80"/>
<stop offset="0.5" stop-color="#22C55E"/>
<stop offset="1" stop-color="#16A34A"/>
</linearGradient>
</defs>
</svg>
